<svg width="41" height="41" viewBox="0 0 41 41" fill="none" xmlns="http://www.w3.org/2000/svg">
<g clip-path="url(#clip0_140_4345)">
<path d="M27.5869 12.8125C26.4258 5.66152 23.6871 0.640625 20.5 0.640625C17.3129 0.640625 14.5742 5.66152 13.4131 12.8125H27.5869ZM12.8125 20.5C12.8125 22.2777 12.9086 23.9834 13.0768 25.625H27.9152C28.0834 23.9834 28.1795 22.2777 28.1795 20.5C28.1795 18.7223 28.0834 17.0166 27.9152 15.375H13.0768C12.9086 17.0166 12.8125 18.7223 12.8125 20.5ZM38.8139 12.8125C36.5236 7.3752 31.8871 3.17109 26.1615 1.47344C28.1154 4.18008 29.4607 8.25605 30.1654 12.8125H38.8139ZM14.8305 1.47344C9.11289 3.17109 4.46836 7.3752 2.18613 12.8125H10.8346C11.5312 8.25605 12.8766 4.18008 14.8305 1.47344ZM39.6707 15.375H30.4857C30.6539 17.0566 30.75 18.7783 30.75 20.5C30.75 22.2217 30.6539 23.9434 30.4857 25.625H39.6627C40.1031 23.9834 40.3514 22.2777 40.3514 20.5C40.3514 18.7223 40.1031 17.0166 39.6707 15.375ZM10.25 20.5C10.25 18.7783 10.3461 17.0566 10.5143 15.375H1.3293C0.896875 17.0166 0.640625 18.7223 0.640625 20.5C0.640625 22.2777 0.896875 23.9834 1.3293 25.625H10.5062C10.3461 23.9434 10.25 22.2217 10.25 20.5ZM13.4131 28.1875C14.5742 35.3385 17.3129 40.3594 20.5 40.3594C23.6871 40.3594 26.4258 35.3385 27.5869 28.1875H13.4131ZM26.1695 39.5266C31.8871 37.8289 36.5316 33.6248 38.8219 28.1875H30.1734C29.4687 32.7439 28.1234 36.8199 26.1695 39.5266ZM2.18613 28.1875C4.47637 33.6248 9.11289 37.8289 14.8385 39.5266C12.8846 36.8199 11.5393 32.7439 10.8346 28.1875H2.18613Z" fill="#8086DF"/>
</g>
<defs>
<clipPath id="clip0_140_4345">
<rect width="41" height="41" fill="white"/>
</clipPath>
</defs>
</svg>
