<svg width="41" height="41" viewBox="0 0 41 41" fill="none" xmlns="http://www.w3.org/2000/svg">
<path d="M29.4688 0H11.5312C9.40918 0 7.6875 1.72168 7.6875 3.84375V37.1562C7.6875 39.2783 9.40918 41 11.5312 41H29.4688C31.5908 41 33.3125 39.2783 33.3125 37.1562V3.84375C33.3125 1.72168 31.5908 0 29.4688 0ZM20.5 38.4375C19.0826 38.4375 17.9375 37.2924 17.9375 35.875C17.9375 34.4576 19.0826 33.3125 20.5 33.3125C21.9174 33.3125 23.0625 34.4576 23.0625 35.875C23.0625 37.2924 21.9174 38.4375 20.5 38.4375ZM29.4688 29.7891C29.4688 30.3176 29.0363 30.75 28.5078 30.75H12.4922C11.9637 30.75 11.5312 30.3176 11.5312 29.7891V4.80469C11.5312 4.27617 11.9637 3.84375 12.4922 3.84375H28.5078C29.0363 3.84375 29.4688 4.27617 29.4688 4.80469V29.7891Z" fill="#8086DF"/>
</svg>
